<svg width="14" height="12" viewBox="0 0 14 12" fill="none" xmlns="http://www.w3.org/2000/svg">
<path d="M5.2921 0.292478L0.292478 5.2921C-0.0974926 5.68207 -0.0974926 6.31487 0.292478 6.70627L5.2921 11.7059C5.68207 12.0959 6.31487 12.0959 6.70627 11.7059C7.09624 11.3159 7.09624 10.6831 6.70627 10.2917L3.41367 6.99911H12.9986C13.5515 6.99911 13.9986 6.552 13.9986 5.99918C13.9986 5.44637 13.5515 4.99926 12.9986 4.99926H3.41367L6.70627 1.70666C6.90197 1.51096 6.99911 1.25526 6.99911 0.999566C6.99911 0.743872 6.90197 0.488177 6.70627 0.292478C6.3163 -0.0974926 5.68207 -0.0974926 5.2921 0.292478Z" fill="#333333"/>
</svg>
