<svg width="250" height="65" viewBox="0 0 250 65" fill="none" xmlns="http://www.w3.org/2000/svg">
<path d="M69.2295 40.2807V18.5807H77.8295C79.4295 18.5807 80.8295 18.8807 82.0295 19.4807C83.2295 20.0807 84.0295 20.9807 84.7295 22.0807C85.4295 23.1807 85.6295 24.4807 85.6295 25.8807C85.6295 27.2807 85.3295 28.5807 84.7295 29.6807C84.1295 30.7807 83.2295 31.6807 82.0295 32.2807C80.8295 32.8807 79.4295 33.1807 77.7295 33.1807H72.2295V29.4807H76.9295C77.8295 29.4807 78.5295 29.2807 79.1295 28.9807C79.7295 28.6807 80.1295 28.2807 80.4295 27.6807C80.7295 27.1807 80.8295 26.4807 80.8295 25.7807C80.8295 25.0807 80.7295 24.4807 80.4295 23.8807C80.1295 23.3807 79.7295 22.8807 79.1295 22.5807C78.5295 22.2807 77.8295 22.0807 76.9295 22.0807H73.8295V39.9807H69.2295V40.2807Z" fill="black"/>
<path d="M89.6295 40.5807C88.6295 40.5807 87.6295 40.3807 86.8295 40.0807C86.0295 39.6807 85.3295 39.1807 84.9295 38.4807C84.4295 37.7807 84.2295 36.8807 84.2295 35.7807C84.2295 34.8807 84.4295 34.0807 84.7295 33.4807C85.0295 32.8807 85.5295 32.3807 86.1295 31.9807C86.7295 31.5807 87.3295 31.2807 88.1295 31.1807C88.8295 30.9807 89.6295 30.8807 90.4295 30.7807C91.3295 30.6807 92.1295 30.5807 92.7295 30.4807C93.3295 30.3807 93.7295 30.2807 94.0295 30.0807C94.3295 29.8807 94.4295 29.6807 94.4295 29.2807V29.1807C94.4295 28.4807 94.2295 27.9807 93.8295 27.5807C93.4295 27.1807 92.8295 26.9807 92.0295 26.9807C91.2295 26.9807 90.5295 27.1807 90.1295 27.4807C89.7295 27.7807 89.3295 28.2807 89.1295 28.7807L84.9295 28.4807C85.1295 27.4807 85.5295 26.6807 86.1295 25.8807C86.7295 25.1807 87.5295 24.5807 88.5295 24.1807C89.5295 23.7807 90.6295 23.5807 91.9295 23.5807C92.8295 23.5807 93.7295 23.6807 94.5295 23.8807C95.3295 24.0807 96.1295 24.3807 96.7295 24.8807C97.3295 25.2807 97.9295 25.8807 98.2295 26.5807C98.6295 27.2807 98.8295 28.0807 98.8295 29.0807V40.0807H94.5295V37.7807H94.4295C94.1295 38.2807 93.8295 38.7807 93.4295 39.0807C93.0295 39.4807 92.4295 39.7807 91.8295 39.9807C91.1295 40.4807 90.4295 40.5807 89.6295 40.5807ZM90.9295 37.4807C91.6295 37.4807 92.1295 37.3807 92.7295 37.0807C93.2295 36.7807 93.6295 36.4807 93.9295 35.9807C94.2295 35.4807 94.3295 34.9807 94.3295 34.4807V32.7807C94.2295 32.8807 94.0295 32.9807 93.7295 32.9807C93.5295 33.0807 93.2295 33.0807 92.9295 33.1807C92.6295 33.2807 92.3295 33.2807 92.0295 33.3807C91.7295 33.4807 91.4295 33.4807 91.2295 33.4807C90.7295 33.5807 90.2295 33.6807 89.8295 33.8807C89.4295 34.0807 89.1295 34.2807 88.9295 34.5807C88.7295 34.8807 88.6295 35.1807 88.6295 35.6807C88.6295 36.2807 88.8295 36.7807 89.3295 37.0807C89.6295 37.2807 90.2295 37.4807 90.9295 37.4807Z" fill="black"/>
<path d="M101.53 46.3807C100.93 46.3807 100.43 46.3807 99.9295 46.2807C99.4295 46.1807 99.0295 46.0807 98.7295 45.9807L99.7295 42.5807C100.23 42.7807 100.73 42.8807 101.13 42.8807C101.53 42.8807 101.93 42.7807 102.23 42.5807C102.53 42.3807 102.83 41.9807 103.03 41.4807L103.33 40.7807L97.5295 24.0807H102.23L105.63 35.9807H105.83L109.23 24.0807H114.03L107.73 42.0807C107.43 42.9807 107.03 43.6807 106.53 44.3807C106.03 45.0807 105.33 45.5807 104.53 45.8807C103.53 46.1807 102.63 46.3807 101.53 46.3807Z" fill="black"/>
<path d="M126.73 28.6807L122.63 28.9807C122.53 28.5807 122.43 28.2807 122.13 27.9807C121.83 27.6807 121.63 27.4807 121.23 27.2807C120.83 27.0807 120.43 26.9807 119.93 26.9807C119.23 26.9807 118.63 27.0807 118.13 27.3807C117.63 27.6807 117.43 28.0807 117.43 28.5807C117.43 28.9807 117.63 29.2807 117.93 29.5807C118.23 29.8807 118.73 30.0807 119.53 30.1807L122.43 30.7807C124.03 31.0807 125.23 31.5807 125.93 32.3807C126.73 33.0807 127.13 34.0807 127.13 35.1807C127.13 36.2807 126.83 37.1807 126.23 37.9807C125.63 38.7807 124.73 39.3807 123.63 39.8807C122.53 40.2807 121.33 40.5807 119.93 40.5807C117.73 40.5807 116.03 40.1807 114.83 39.2807C113.53 38.3807 112.83 37.1807 112.63 35.5807L117.03 35.3807C117.13 36.0807 117.53 36.5807 118.03 36.8807C118.53 37.1807 119.23 37.3807 120.03 37.3807C120.83 37.3807 121.43 37.1807 121.93 36.8807C122.43 36.5807 122.63 36.1807 122.63 35.6807C122.63 35.2807 122.43 34.9807 122.13 34.6807C121.83 34.3807 121.23 34.1807 120.53 34.0807L117.73 33.4807C116.13 33.1807 114.93 32.5807 114.23 31.7807C113.43 30.9807 113.03 29.9807 113.03 28.7807C113.03 27.7807 113.33 26.8807 113.93 26.0807C114.53 25.2807 115.33 24.7807 116.33 24.3807C117.33 23.9807 118.53 23.7807 119.93 23.7807C122.03 23.7807 123.63 24.1807 124.83 25.0807C125.83 25.9807 126.53 27.1807 126.73 28.6807Z" fill="black"/>
<path d="M139.03 40.5807C137.63 40.5807 136.43 40.2807 135.43 39.5807C134.43 38.8807 133.63 37.8807 133.03 36.6807C132.43 35.3807 132.13 33.8807 132.13 32.1807C132.13 30.4807 132.43 28.9807 133.03 27.7807C133.63 26.4807 134.43 25.5807 135.43 24.8807C136.43 24.1807 137.73 23.8807 139.03 23.8807C140.13 23.8807 140.93 24.0807 141.53 24.3807C142.13 24.6807 142.63 25.0807 142.93 25.5807C143.23 26.0807 143.53 26.3807 143.73 26.6807H143.93V18.6807H146.43V40.3807H144.03V37.8807H143.73C143.53 38.1807 143.33 38.5807 142.93 38.9807C142.63 39.3807 142.13 39.7807 141.43 40.1807C140.83 40.4807 140.03 40.5807 139.03 40.5807ZM139.33 38.3807C140.33 38.3807 141.13 38.0807 141.83 37.5807C142.53 37.0807 143.03 36.2807 143.43 35.3807C143.83 34.4807 143.93 33.3807 143.93 32.1807C143.93 30.9807 143.73 29.8807 143.43 28.9807C143.03 28.0807 142.53 27.3807 141.83 26.8807C141.13 26.3807 140.33 26.0807 139.23 26.0807C138.13 26.0807 137.33 26.3807 136.63 26.8807C135.93 27.3807 135.43 28.1807 135.03 29.0807C134.73 29.9807 134.53 31.0807 134.53 32.1807C134.53 33.3807 134.73 34.3807 135.03 35.2807C135.43 36.1807 135.93 36.9807 136.63 37.4807C137.33 37.9807 138.33 38.3807 139.33 38.3807Z" fill="black"/>
<path d="M158.629 33.6807V24.0807H161.129V40.3807H158.629V37.5807H158.429C158.029 38.3807 157.429 39.0807 156.629 39.6807C155.829 40.2807 154.829 40.5807 153.629 40.5807C152.629 40.5807 151.729 40.3807 150.929 39.8807C150.129 39.4807 149.529 38.7807 149.029 37.8807C148.529 36.9807 148.329 35.7807 148.329 34.4807V23.9807H150.829V34.1807C150.829 35.3807 151.129 36.2807 151.829 36.9807C152.529 37.6807 153.329 38.0807 154.429 38.0807C155.029 38.0807 155.729 37.8807 156.329 37.5807C156.929 37.2807 157.529 36.7807 157.929 36.0807C158.429 35.4807 158.629 34.6807 158.629 33.6807Z" fill="black"/>
<path d="M168.13 40.2807V23.9807H170.53V26.4807H170.73C171.03 25.5807 171.63 24.9807 172.33 24.4807C173.13 23.9807 174.03 23.7807 175.03 23.7807C176.13 23.7807 177.03 23.9807 177.73 24.4807C178.43 24.9807 179.03 25.6807 179.43 26.4807H179.63C180.03 25.6807 180.63 24.9807 181.53 24.4807C182.33 23.9807 183.33 23.7807 184.53 23.7807C186.03 23.7807 187.13 24.2807 188.13 25.1807C189.03 26.0807 189.53 27.4807 189.53 29.3807V40.2807H187.03V29.3807C187.03 28.1807 186.73 27.2807 186.03 26.7807C185.33 26.2807 184.63 25.9807 183.73 25.9807C182.63 25.9807 181.73 26.2807 181.03 26.9807C180.43 27.6807 180.13 28.5807 180.13 29.5807V40.1807H177.63V29.1807C177.63 28.2807 177.33 27.4807 176.73 26.9807C176.13 26.4807 175.33 26.0807 174.43 26.0807C173.83 26.0807 173.13 26.2807 172.63 26.5807C172.03 26.8807 171.63 27.3807 171.23 27.9807C170.93 28.5807 170.73 29.2807 170.73 30.0807V40.2807H168.13V40.2807Z" fill="black"/>
<path d="M197.63 40.5807C196.13 40.5807 194.829 40.2807 193.729 39.5807C192.629 38.8807 191.73 37.8807 191.13 36.6807C190.53 35.3807 190.229 33.9807 190.229 32.2807C190.229 30.5807 190.53 29.0807 191.13 27.8807C191.73 26.6807 192.629 25.6807 193.729 24.9807C194.829 24.2807 196.13 23.9807 197.63 23.9807C199.13 23.9807 200.429 24.2807 201.529 24.9807C202.629 25.6807 203.53 26.6807 204.13 27.8807C204.73 29.0807 205.029 30.5807 205.029 32.2807C205.029 33.9807 204.73 35.3807 204.13 36.6807C203.53 37.9807 202.629 38.8807 201.529 39.5807C200.429 40.2807 199.13 40.5807 197.63 40.5807ZM197.63 38.3807C198.73 38.3807 199.63 38.0807 200.43 37.4807C201.23 36.8807 201.729 36.1807 202.029 35.1807C202.329 34.2807 202.529 33.2807 202.529 32.1807C202.529 31.0807 202.329 30.0807 202.029 29.1807C201.729 28.2807 201.13 27.4807 200.43 26.8807C199.73 26.2807 198.83 25.9807 197.63 25.9807C196.53 25.9807 195.629 26.2807 194.829 26.8807C194.129 27.4807 193.529 28.1807 193.229 29.1807C192.929 30.0807 192.729 31.1807 192.729 32.1807C192.729 33.2807 192.929 34.2807 193.229 35.1807C193.529 36.0807 194.129 36.8807 194.829 37.4807C195.529 38.0807 196.53 38.3807 197.63 38.3807Z" fill="black"/>
<path d="M208.329 30.4807V40.2807H205.829V23.9807H208.229V26.4807H208.429C208.829 25.6807 209.429 24.9807 210.129 24.4807C210.829 23.9807 211.929 23.6807 213.129 23.6807C214.229 23.6807 215.229 23.8807 216.029 24.3807C216.829 24.7807 217.529 25.4807 217.929 26.3807C218.329 27.2807 218.629 28.4807 218.629 29.7807V40.0807H216.129V30.0807C216.129 28.7807 215.829 27.7807 215.129 27.0807C214.429 26.3807 213.529 25.9807 212.429 25.9807C211.629 25.9807 210.929 26.1807 210.329 26.4807C209.729 26.7807 209.229 27.3807 208.829 27.9807C208.529 28.7807 208.329 29.5807 208.329 30.4807Z" fill="black"/>
<path d="M226.429 40.5807C225.029 40.5807 223.829 40.2807 222.829 39.5807C221.829 38.8807 221.029 37.8807 220.429 36.6807C219.829 35.3807 219.529 33.8807 219.529 32.1807C219.529 30.4807 219.829 28.9807 220.429 27.7807C221.029 26.4807 221.829 25.5807 222.829 24.8807C223.829 24.1807 225.129 23.8807 226.429 23.8807C227.529 23.8807 228.329 24.0807 228.929 24.3807C229.529 24.6807 230.029 25.0807 230.329 25.5807C230.629 26.0807 230.929 26.3807 231.129 26.6807H231.329V18.6807H233.829V40.3807H231.429V37.8807H231.129C230.929 38.1807 230.729 38.5807 230.329 38.9807C230.029 39.3807 229.529 39.7807 228.829 40.1807C228.329 40.4807 227.529 40.5807 226.429 40.5807ZM226.829 38.3807C227.829 38.3807 228.629 38.0807 229.329 37.5807C230.029 37.0807 230.529 36.2807 230.929 35.3807C231.329 34.4807 231.429 33.3807 231.429 32.1807C231.429 30.9807 231.229 29.8807 230.929 28.9807C230.529 28.0807 230.029 27.3807 229.329 26.8807C228.629 26.3807 227.829 26.0807 226.729 26.0807C225.629 26.0807 224.829 26.3807 224.129 26.8807C223.429 27.3807 222.929 28.1807 222.529 29.0807C222.229 29.9807 222.029 31.0807 222.029 32.1807C222.029 33.3807 222.229 34.3807 222.529 35.2807C222.929 36.1807 223.429 36.9807 224.129 37.4807C224.829 37.9807 225.729 38.3807 226.829 38.3807Z" fill="black"/>
<path d="M242.63 40.5807C241.03 40.5807 239.73 40.2807 238.63 39.5807C237.53 38.8807 236.63 37.8807 236.03 36.6807C235.43 35.3807 235.13 33.9807 235.13 32.2807C235.13 30.5807 235.43 29.1807 236.03 27.8807C236.63 26.5807 237.53 25.5807 238.63 24.8807C239.73 24.1807 241.03 23.7807 242.43 23.7807C243.23 23.7807 244.13 23.8807 244.93 24.1807C245.73 24.4807 246.53 24.8807 247.23 25.5807C247.93 26.1807 248.43 27.0807 248.83 28.0807C249.23 29.0807 249.43 30.3807 249.43 31.8807V32.9807H236.83V30.7807H246.83C246.83 29.8807 246.63 29.0807 246.33 28.2807C245.93 27.5807 245.43 26.9807 244.83 26.5807C244.23 26.1807 243.33 25.9807 242.43 25.9807C241.43 25.9807 240.53 26.1807 239.83 26.6807C239.13 27.1807 238.53 27.7807 238.13 28.5807C237.73 29.3807 237.53 30.1807 237.53 31.0807V32.4807C237.53 33.6807 237.73 34.7807 238.13 35.5807C238.53 36.4807 239.13 37.0807 239.93 37.4807C240.73 37.8807 241.53 38.1807 242.63 38.1807C243.33 38.1807 243.93 38.0807 244.43 37.8807C244.93 37.6807 245.43 37.3807 245.83 37.0807C246.23 36.6807 246.53 36.2807 246.73 35.6807L249.13 36.3807C248.83 37.1807 248.43 37.8807 247.83 38.5807C247.23 39.1807 246.53 39.6807 245.63 39.9807C244.73 40.4807 243.73 40.5807 242.63 40.5807Z" fill="black"/>
<path d="M32.5046 52.1071V56.4071C31.6046 56.1071 30.6046 55.7071 29.7046 55.3071C28.4046 54.7071 27.1046 54.0071 25.9046 53.2071C24.2046 52.1071 22.5046 50.8071 21.0046 49.3071C19.2046 47.5071 17.6046 45.5071 16.2046 43.3071C15.4046 42.0071 14.7046 40.7071 14.1046 39.3071C13.7046 38.4071 13.3046 37.5071 13.0046 36.6071C12.3046 34.7071 11.7046 32.7071 11.3046 30.7071C11.0046 29.4071 10.8046 28.0071 10.7046 26.7071C10.4046 24.2071 10.4046 21.6071 10.7046 19.2071C10.8046 17.9071 11.0046 16.5071 11.2046 15.3071C11.5046 13.5071 12.0046 11.8071 12.6046 10.1071C13.4046 7.70706 14.5046 5.40707 15.9046 3.30707L17.5046 4.30707L17.6046 4.40707L19.3046 5.50705C19.2046 5.70705 19.0046 5.90706 18.9046 6.10706C18.8046 6.40706 18.6046 6.60707 18.5046 6.90707C18.1046 7.60707 17.7046 8.40706 17.4046 9.20706C16.5046 11.2071 15.8046 13.307 15.4046 15.507C15.1046 16.807 14.9046 18.207 14.8046 19.507C14.6046 21.907 14.6046 24.4071 14.9046 26.8071C15.0046 28.1071 15.3046 29.4071 15.6046 30.8071C16.0046 32.3071 16.4046 33.9071 17.0046 35.4071C17.5046 36.8071 18.1046 38.1071 18.7046 39.3071C19.4046 40.6071 20.1046 41.9071 21.0046 43.1071C22.7046 45.5071 24.8046 47.6071 27.1046 49.2071C28.0046 49.9071 29.0046 50.507 30.0046 51.007C30.5046 51.307 30.9046 51.5071 31.4046 51.7071C31.5046 51.7071 31.5046 51.7071 31.6046 51.8071C31.9046 51.9071 32.3046 52.1071 32.6046 52.2071C32.4046 52.1071 32.4046 52.1071 32.5046 52.1071Z" fill="#5C80FF"/>
<path d="M46.0047 40.4071C46.0047 41.2071 45.4047 41.8071 44.6047 41.8071H43.4047C43.4047 40.9071 43.4047 40.007 43.4047 39.007H44.6047C45.2047 39.007 45.6047 39.3071 45.9047 39.8071C45.9047 40.0071 46.0047 40.2071 46.0047 40.4071Z" fill="#5C80FF"/>
<path d="M46.1047 29.9071H42.0047C42.0047 29.8071 41.9047 29.607 41.9047 29.507C41.3047 27.507 40.6047 25.6071 39.8047 23.7071C39.4047 22.8071 38.9047 21.907 38.4047 21.007C37.9047 20.007 37.3047 19.1071 36.6047 18.2071C36.5047 18.0071 36.3047 17.8071 36.2047 17.6071C34.8047 15.7071 33.1047 13.707 30.8047 12.007C29.8047 11.207 28.7047 10.4071 27.4047 9.70706C25.4047 8.60706 23.2047 7.70706 20.7047 7.10706C19.9047 6.90706 19.1047 6.80706 18.3047 6.70706C18.0047 6.60706 17.7047 6.60706 17.4047 6.60706H17.3047L17.5047 4.30707V4.20706L17.6047 2.70706C20.1047 2.90706 22.5047 3.50707 24.8047 4.30707C26.6047 5.00707 28.4047 5.80707 30.1047 6.80707C31.2047 7.50707 32.3047 8.30706 33.4047 9.10706C35.4047 10.7071 37.3047 12.6071 38.9047 14.8071C39.2047 15.2071 39.5047 15.607 39.8047 16.007C40.3047 16.707 40.8047 17.5071 41.2047 18.2071C42.0047 19.6071 42.8047 21.007 43.5047 22.507C43.9047 23.407 44.3047 24.3071 44.6047 25.3071H42.3047C41.9047 25.3071 41.6047 25.607 41.6047 26.007V27.2071H45.2047C45.7047 28.1071 45.9047 29.0071 46.1047 29.9071Z" fill="#5C80FF"/>
<path d="M47.0046 34.507H43.0046C43.0046 34.307 42.9046 34.1071 42.9046 33.8071C42.8046 33.1071 42.6046 32.4071 42.5046 31.7071H46.6046C46.7046 32.7071 46.9046 33.607 47.0046 34.507Z" fill="#5C80FF"/>
<path d="M46.3046 50.007C46.3046 50.007 46.3046 50.107 46.3046 50.007H46.0046H46.3046Z" fill="#5C80FF"/>
<path d="M47.2047 44.6071C47.1047 45.5071 47.0047 46.4071 46.8047 47.3071H42.7047C42.9047 46.4071 43.0047 45.507 43.1047 44.507H46.7047C46.9047 44.507 47.1047 44.5071 47.2047 44.6071Z" fill="#5C80FF"/>
<path d="M33.3046 34.507H33.2046C32.8046 34.507 32.5046 34.8071 32.5046 35.2071V42.4071L31.5046 40.2071L29.8046 36.6071L29.7046 36.4071L26.0046 28.4071L24.3046 24.8071L21.3046 18.1071L19.6046 14.4071L17.2046 9.10706L16.4046 7.30707L15.5046 5.20706L17.4046 4.30707L17.5046 4.20706L19.0046 3.50705L19.1046 3.80707L19.9046 5.60706L20.7046 7.30707L23.2046 12.9071L24.9046 16.507L28.0046 23.3071L29.6046 26.9071L32.0046 32.1071L33.3046 34.507Z" fill="#5C80FF"/>
<path d="M36.4046 41.2071C36.2046 41.0071 36.1046 40.807 36.1046 40.507L36.4046 41.2071Z" fill="#5C80FF"/>
<path d="M39.1046 47.2071H37.4046C37.2046 47.2071 37.0046 47.2071 36.8046 47.1071C36.5046 46.9071 36.2046 46.7071 36.1046 46.3071C36.0046 46.1071 36.0046 46.0071 36.0046 45.8071C36.0046 45.7071 36.0046 45.5071 36.1046 45.4071C36.3046 44.8071 36.8046 44.4071 37.4046 44.4071H37.8046L38.2046 45.2071L39.1046 47.2071Z" fill="#5C80FF"/>
<path d="M41.3046 52.007L39.5046 52.8071H37.4046C37.3046 52.8071 37.3046 52.8071 37.2046 52.8071L36.7046 51.8071L36.2046 50.8071V50.7071C36.4046 50.3071 36.9046 50.1071 37.4046 50.1071H40.3046L40.6046 50.9071H40.7046L41.3046 52.007Z" fill="#5C80FF"/>
<path d="M13.9047 19.4071C10.7047 19.4071 7.60469 18.7071 4.80469 17.2071L6.70468 13.7071C11.8047 16.4071 16.7047 15.5071 20.0047 14.3071C25.7047 12.2071 30.7047 7.60706 33.0047 2.20706L36.7047 3.70706C34.0047 10.1071 28.1047 15.607 21.4047 18.007C18.9047 18.907 16.3047 19.4071 13.9047 19.4071Z" fill="#5C80FF"/>
<path d="M12.7046 30.7071C9.10461 30.7071 5.50461 30.2071 2.10461 29.1071L3.30461 25.3071C18.6046 30.2071 37.0046 22.3071 43.4046 7.90707L47.1046 9.50705C41.3046 22.407 27.0046 30.7071 12.7046 30.7071Z" fill="#5C80FF"/>
<path d="M32.5047 35.507V39.8071C32.2047 39.9071 31.8047 40.1071 31.5047 40.2071C30.9047 40.4071 30.3047 40.6071 29.7047 40.8071C26.8047 41.8071 23.7047 42.5071 20.7047 42.8071C19.2047 43.0071 17.7047 43.1071 16.2047 43.2071C15.7047 43.2071 15.2047 43.2071 14.6047 43.2071C12.6047 43.2071 10.6047 43.1071 8.60469 42.8071C7.10469 42.6071 5.70469 42.307 4.30469 42.007L5.30469 38.1071C5.60469 38.2071 5.90468 38.2071 6.20468 38.3071C8.70468 38.8071 11.4047 39.1071 14.1047 39.2071C15.6047 39.2071 17.0047 39.2071 18.5047 39.1071C22.3047 38.8071 26.1047 38.0071 29.8047 36.6071H29.9047C30.3047 36.5071 30.6047 36.3071 31.0047 36.2071C31.2047 36.1071 31.5047 36.0071 31.7047 35.9071C31.9047 35.8071 32.2047 35.7071 32.4047 35.6071C32.4047 35.6071 32.4047 35.607 32.5047 35.507Z" fill="#5C80FF"/>
<path d="M45.3047 31.8071C44.5047 32.5071 43.7047 33.2071 42.9047 33.9071C42.6047 34.1071 42.3047 34.3071 42.0047 34.6071H34.6047C35.4047 34.2071 36.2047 33.8071 36.9047 33.3071C37.7047 32.8071 38.4047 32.4071 39.1047 31.8071H45.3047Z" fill="#5C80FF"/>
<path d="M49.5047 27.1071C48.8047 28.1071 48.0047 29.0071 47.2047 29.9071H41.4047C41.6047 29.8071 41.7047 29.607 41.8047 29.507C42.6047 28.807 43.5047 28.0071 44.2047 27.1071H49.5047V27.1071Z" fill="#5C80FF"/>
<path d="M54.0047 19.1071C53.5047 20.3071 53.0047 21.407 52.4047 22.507C52.2047 22.907 51.9047 23.4071 51.7047 23.8071C51.4047 24.3071 51.1047 24.8071 50.8047 25.3071H45.9047C46.6047 24.4071 47.2047 23.507 47.8047 22.507C48.6047 21.207 49.3047 19.8071 50.0047 18.3071C50.1047 18.1071 50.2047 17.8071 50.3047 17.6071L54.0047 19.1071Z" fill="#5C80FF"/>
<path d="M38.1046 55.507C37.5046 55.707 36.9046 56.0071 36.2046 56.1071C36.4046 55.7071 36.9046 55.507 37.4046 55.507H38.1046Z" fill="#5C80FF"/>
<path d="M46.9046 50.007C46.3046 50.507 45.7046 51.1071 45.1046 51.6071C44.6046 52.0071 44.0046 52.4071 43.4046 52.8071H37.4046C37.3046 52.8071 37.3046 52.8071 37.2046 52.8071C36.7046 52.7071 36.3046 52.407 36.2046 52.007C36.4046 51.907 36.6046 51.9071 36.8046 51.8071C37.4046 51.6071 38.0046 51.307 38.6046 51.007L39.0046 50.8071C39.5046 50.6071 39.9046 50.307 40.4046 50.007H46.8046C46.8046 50.007 46.9046 50.007 46.9046 50.007Z" fill="#5C80FF"/>
<path d="M48.2046 45.9071C48.2046 46.6071 47.7046 47.2071 46.9046 47.3071C46.9046 47.3071 46.9046 47.3071 46.8046 47.3071H44.0046C44.5046 46.9071 44.9046 46.4071 45.4046 45.9071C45.8046 45.5071 46.1046 45.2071 46.4046 44.8071C46.5046 44.7071 46.5046 44.7071 46.6046 44.6071C46.6046 44.6071 46.6046 44.507 46.7046 44.507H46.8046C46.9046 44.507 47.1046 44.5071 47.2046 44.6071C47.8046 44.7071 48.1046 45.2071 48.2046 45.9071C48.2046 45.9071 48.2046 45.8071 48.2046 45.9071Z" fill="#5C80FF"/>
<path d="M56.0046 25.3071H52.0046C51.9046 24.8071 51.8046 24.3071 51.7046 23.8071C51.6046 23.5071 51.6046 23.3071 51.5046 23.0071C51.5046 22.9071 51.4046 22.7071 51.4046 22.5071C51.0046 21.1071 50.6046 19.7071 49.9046 18.3071C48.8046 15.9071 47.4046 13.8071 45.7046 11.9071C44.8046 10.9071 43.8046 9.90706 42.7046 9.10706C40.6046 7.50706 38.3046 6.20707 35.8046 5.30707C34.5046 4.80707 33.2046 4.50707 31.8046 4.30707C30.4046 4.10707 29.0046 4.00705 27.6046 4.00705C26.6046 4.00705 25.7046 4.10707 24.8046 4.20707C23.1046 4.40707 21.5046 4.80705 19.9046 5.50705C19.5046 5.60705 19.1046 5.80705 18.7046 6.00705C18.5046 6.10705 18.4046 6.10707 18.2046 6.20707L18.0046 6.30707C17.7046 6.40707 17.5046 6.60707 17.2046 6.70707C16.9046 6.90707 16.5046 7.10707 16.2046 7.30707C14.8046 8.10707 13.5046 9.10706 12.3046 10.1071C10.8046 11.4071 9.50462 12.9071 8.40462 14.6071C7.60462 15.7071 7.00462 16.9071 6.40462 18.1071C5.30462 20.5071 4.60462 23.0071 4.20462 25.7071C4.10462 26.8071 4.00463 28.0071 4.00463 29.2071C4.00463 29.4071 4.00463 29.6071 4.00463 29.8071C4.10463 32.8071 4.80462 35.8071 5.90462 38.5071C6.60462 40.1071 7.40462 41.6071 8.40462 43.0071C9.70462 44.9071 11.2046 46.6071 13.0046 48.0071C13.1046 48.1071 13.2046 48.2071 13.2046 48.2071C16.8046 51.1071 21.1046 52.9071 25.6046 53.3071C26.5046 53.4071 27.4046 53.5071 28.3046 53.4071C28.6046 53.4071 29.0046 53.4071 29.3046 53.4071H29.4046C30.2046 53.4071 31.0046 53.3071 31.8046 53.1071C31.9046 53.1071 32.0046 53.1071 32.1046 53.0071V57.0071C31.2046 57.2071 30.3046 57.3071 29.5046 57.3071H29.4046C29.1046 57.3071 28.7046 57.3071 28.4046 57.3071H28.0046C21.9046 57.3071 15.9046 55.2071 11.0046 51.4071C10.9046 51.3071 10.8046 51.3071 10.7046 51.2071C4.00462 45.8071 0.204626 37.8071 0.00462563 29.2071C-0.195374 17.9071 6.10463 7.50707 16.1046 2.70707L16.5046 2.40708H16.7046C20.1046 0.907078 23.6046 0.107054 27.3046 0.00705353C40.4046 -0.292946 52.1046 9.00706 55.1046 22.1071C55.1046 22.2071 55.2046 22.4071 55.2046 22.5071C55.4046 23.3071 55.5046 24.2071 55.6046 25.0071C56.0046 25.1071 56.0046 25.2071 56.0046 25.3071Z" fill="#5C80FF"/>
<path d="M56.2046 27.9071V28.1071H52.2046C52.2046 28.0071 52.2046 27.8071 52.2046 27.7071C52.2046 27.6071 52.2046 27.4071 52.2046 27.3071C52.2046 27.3071 52.2046 27.2071 52.2046 27.1071H55.7046C55.9046 27.1071 56.1046 27.1071 56.2046 27.1071C56.2046 27.2071 56.2046 27.3071 56.2046 27.4071C56.2046 27.6071 56.2046 27.8071 56.2046 27.9071Z" fill="#5C80FF"/>
<path d="M54.5046 35.2071V38.7071C54.2046 39.5071 53.9046 40.307 53.5046 41.007C53.0046 42.107 52.4046 43.3071 51.7046 44.3071V35.2071C51.7046 35.0071 51.6046 34.8071 51.5046 34.7071C51.6046 34.1071 51.8046 33.5071 51.9046 32.9071C51.9046 32.7071 52.0046 32.5071 52.0046 32.3071C52.0046 32.2071 52.0046 32.0071 52.1046 31.9071C52.5046 32.0071 52.9046 32.207 53.2046 32.507C53.3046 32.607 53.4046 32.6071 53.4046 32.7071C53.6046 32.9071 53.7046 33.0071 53.9046 33.2071C54.3046 33.7071 54.5046 34.307 54.5046 35.007C54.5046 35.107 54.5046 35.1071 54.5046 35.2071Z" fill="#5C80FF"/>
<path d="M56.2046 28.4071V28.8071C56.2046 29.2071 56.2046 29.607 56.2046 30.007C56.2046 30.107 56.2046 30.2071 56.2046 30.2071C56.1046 30.0071 55.9046 29.9071 55.7046 29.9071H52.2046C52.2046 29.7071 52.2046 29.5071 52.2046 29.3071C52.2046 29.0071 52.2046 28.807 52.2046 28.507V28.3071H56.2046V28.4071Z" fill="#5C80FF"/>
<path d="M46.0047 40.4071C46.0047 41.2071 45.4047 41.8071 44.6047 41.8071H43.7047C44.5047 41.2071 45.2047 40.6071 45.9047 39.9071C45.9047 40.0071 46.0047 40.2071 46.0047 40.4071Z" fill="#5C80FF"/>
<path d="M32.5047 47.7071V52.007C32.5047 52.007 32.4047 52.007 32.3047 52.007C31.4047 52.207 30.6047 52.4071 29.7047 52.6071C28.4047 52.9071 27.2047 53.0071 25.9047 53.1071C24.8047 53.2071 23.7047 53.3071 22.6047 53.3071C18.8047 53.3071 15.0047 52.7071 11.3047 51.4071L12.6047 47.6071C12.8047 47.7071 13.0047 47.7071 13.2047 47.8071C15.7047 48.6071 18.3047 49.1071 21.0047 49.2071C22.9047 49.3071 24.9047 49.2071 26.8047 48.9071C27.8047 48.8071 28.8047 48.6071 29.7047 48.4071C30.7047 48.3071 31.6047 48.0071 32.5047 47.7071Z" fill="#5C80FF"/>
<path d="M38.0047 50.007C37.4047 50.307 36.8047 50.5071 36.3047 50.7071H36.2047C36.2047 50.7071 36.2047 50.607 36.3047 50.507C36.5047 50.107 37.0047 49.9071 37.5047 49.9071H38.0047V50.007Z" fill="#5C80FF"/>
<path d="M46.7046 44.507C46.6046 44.607 46.5046 44.7071 46.4046 44.8071C45.3046 45.7071 44.2046 46.5071 43.0046 47.3071H37.3046C37.1046 47.3071 36.9046 47.3071 36.7046 47.2071C36.4046 47.0071 36.1046 46.8071 36.0046 46.4071C36.7046 46.1071 37.4046 45.7071 38.1046 45.4071C38.6046 45.1071 39.1046 44.9071 39.6046 44.6071H46.7046V44.507Z" fill="#5C80FF"/>
<path d="M51.7047 39.3071V35.3071C51.7047 35.1071 51.6047 34.9071 51.5047 34.8071C51.4047 34.7071 51.2047 34.6071 51.0047 34.6071H50.1047C50.6047 33.7071 51.1047 32.8071 51.6047 31.9071C51.8047 31.9071 51.9047 32.007 52.0047 32.007C52.4047 32.107 52.8047 32.3071 53.1047 32.6071C53.2047 32.7071 53.3047 32.7071 53.3047 32.8071C53.5047 33.0071 53.6047 33.1071 53.8047 33.3071C54.2047 33.8071 54.4047 34.4071 54.4047 35.1071C53.7047 36.5071 52.7047 37.9071 51.7047 39.3071Z" fill="#5C80FF"/>
<path d="M53.1047 32.507L51.9047 32.3071C51.9047 32.2071 51.9047 32.0071 51.9047 31.9071C52.4047 32.0071 52.8047 32.207 53.1047 32.507Z" fill="#5C80FF"/>
<path d="M56.2047 28.7071C56.2047 29.1071 56.2047 29.5071 56.2047 29.9071C56.2047 30.0071 56.2047 30.1071 56.2047 30.1071C56.1047 29.9071 55.9047 29.8071 55.7047 29.8071H52.2047C52.2047 29.6071 52.2047 29.4071 52.2047 29.2071C52.2047 28.9071 52.2047 28.7071 52.2047 28.4071V28.2071C52.2047 28.1071 52.2047 28.0071 52.2047 27.9071C52.2047 27.8071 52.2047 27.607 52.2047 27.507L56.2047 27.3071C56.2047 27.5071 56.2047 27.7071 56.2047 27.9071C56.2047 28.0071 56.2047 28.1071 56.2047 28.2071C56.2047 28.5071 56.2047 28.6071 56.2047 28.7071Z" fill="#5C80FF"/>
<path d="M52.0295 31.9807C51.9295 31.9807 51.7295 31.8807 51.6295 31.8807C51.4295 31.8807 51.2295 31.8807 51.0295 31.8807H42.5295C42.7295 32.5807 42.8295 33.2807 42.9295 33.9807C42.6295 34.1807 42.3295 34.3807 42.0295 34.6807H51.0295C51.2295 34.6807 51.4295 34.7807 51.5295 34.8807C51.6295 34.2807 51.8295 33.6807 51.9295 33.0807C51.9295 32.8807 52.0295 32.6807 52.0295 32.4807C52.0295 32.1807 52.0295 32.0807 52.0295 31.9807ZM29.7295 48.4807V50.8807C30.2295 51.1807 30.6295 51.3807 31.1295 51.5807C31.2295 51.5807 31.2295 51.5807 31.3295 51.6807C31.6295 51.7807 32.0295 51.9807 32.3295 52.0807C32.3295 52.0807 32.4295 52.0807 32.5295 52.1807V47.7807C31.5295 48.0807 30.6295 48.2807 29.7295 48.4807ZM52.0295 31.9807C51.9295 31.9807 51.7295 31.8807 51.6295 31.8807C51.4295 31.8807 51.2295 31.8807 51.0295 31.8807H39.0295C38.3295 32.3807 37.6295 32.8807 36.8295 33.3807C36.0295 33.8807 35.3295 34.2807 34.5295 34.6807H50.9295C51.1295 34.6807 51.3295 34.7807 51.4295 34.8807C51.5295 34.2807 51.7295 33.6807 51.8295 33.0807C51.8295 32.8807 51.9295 32.6807 51.9295 32.4807C52.0295 32.1807 52.0295 32.0807 52.0295 31.9807ZM29.7295 48.4807V50.8807C30.2295 51.1807 30.6295 51.3807 31.1295 51.5807C31.2295 51.5807 31.2295 51.5807 31.3295 51.6807C31.6295 51.7807 32.0295 51.9807 32.3295 52.0807C32.3295 52.0807 32.4295 52.0807 32.5295 52.1807V47.7807C31.5295 48.0807 30.6295 48.2807 29.7295 48.4807ZM32.3295 35.5807C32.1295 35.6807 31.8295 35.7807 31.6295 35.8807C31.4295 35.9807 31.1295 36.0807 30.9295 36.1807C30.5295 36.2807 30.2295 36.4807 29.8295 36.5807L31.5295 40.1807L32.5295 42.3807V35.4807C32.4295 35.5807 32.3295 35.5807 32.3295 35.5807ZM52.0295 31.9807C51.9295 31.9807 51.7295 31.8807 51.6295 31.8807C51.4295 31.8807 51.2295 31.8807 51.0295 31.8807H37.1295V30.6807C37.1295 30.2807 37.4295 29.9807 37.8295 29.9807H42.0295C42.0295 29.8807 41.9295 29.6807 41.9295 29.5807C41.3295 27.5807 40.6295 25.6807 39.8295 23.7807C39.3295 24.3807 39.0295 25.1807 39.0295 25.9807V27.1807H37.8295C35.9295 27.1807 34.3295 28.6807 34.3295 30.6807V31.8807H33.1295C32.7295 31.8807 32.4295 31.9807 32.0295 32.0807C31.4295 32.1807 30.8295 32.5807 30.4295 33.1807C30.0295 33.7807 29.7295 34.4807 29.7295 35.2807V36.3807L29.8295 36.5807H29.7295V50.7807C30.2295 51.0807 30.6295 51.2807 31.1295 51.4807C31.2295 51.4807 31.2295 51.4807 31.3295 51.5807C31.6295 51.6807 32.0295 51.8807 32.3295 51.9807C32.3295 51.9807 32.4295 51.9807 32.5295 52.0807V35.2807C32.5295 34.8807 32.8295 34.5807 33.2295 34.5807H51.0295C51.2295 34.5807 51.4295 34.6807 51.5295 34.7807C51.6295 34.1807 51.8295 33.5807 51.9295 32.9807C51.9295 32.7807 52.0295 32.5807 52.0295 32.3807C52.0295 32.1807 52.0295 32.0807 52.0295 31.9807ZM52.0295 31.9807C51.9295 31.9807 51.7295 31.8807 51.6295 31.8807C51.4295 31.8807 51.2295 31.8807 51.0295 31.8807H37.1295V30.6807C37.1295 30.2807 37.4295 29.9807 37.8295 29.9807H42.0295C42.0295 29.8807 41.9295 29.6807 41.9295 29.5807C41.3295 27.5807 40.6295 25.6807 39.8295 23.7807C39.3295 24.3807 39.0295 25.1807 39.0295 25.9807V27.1807H37.8295C35.9295 27.1807 34.3295 28.6807 34.3295 30.6807V31.8807H33.1295C32.7295 31.8807 32.4295 31.9807 32.0295 32.0807C31.4295 32.1807 30.8295 32.5807 30.4295 33.1807C30.0295 33.7807 29.7295 34.4807 29.7295 35.2807V36.3807L29.8295 36.5807H29.7295V50.7807C30.2295 51.0807 30.6295 51.2807 31.1295 51.4807C31.2295 51.4807 31.2295 51.4807 31.3295 51.5807C31.6295 51.6807 32.0295 51.8807 32.3295 51.9807C32.3295 51.9807 32.4295 51.9807 32.5295 52.0807V35.2807C32.5295 34.8807 32.8295 34.5807 33.2295 34.5807H51.0295C51.2295 34.5807 51.4295 34.6807 51.5295 34.7807C51.6295 34.1807 51.8295 33.5807 51.9295 32.9807C51.9295 32.7807 52.0295 32.5807 52.0295 32.3807C52.0295 32.1807 52.0295 32.0807 52.0295 31.9807ZM52.0295 31.9807C51.9295 31.9807 51.7295 31.8807 51.6295 31.8807C51.4295 31.8807 51.2295 31.8807 51.0295 31.8807H37.1295V30.6807C37.1295 30.2807 37.4295 29.9807 37.8295 29.9807H42.0295C42.0295 29.8807 41.9295 29.6807 41.9295 29.5807C41.3295 27.5807 40.6295 25.6807 39.8295 23.7807C39.3295 24.3807 39.0295 25.1807 39.0295 25.9807V27.1807H37.8295C35.9295 27.1807 34.3295 28.6807 34.3295 30.6807V31.8807H33.1295C32.7295 31.8807 32.4295 31.9807 32.0295 32.0807C31.4295 32.1807 30.8295 32.5807 30.4295 33.1807C30.0295 33.7807 29.7295 34.4807 29.7295 35.2807V36.3807L29.8295 36.5807H29.7295V50.7807C30.2295 51.0807 30.6295 51.2807 31.1295 51.4807C31.2295 51.4807 31.2295 51.4807 31.3295 51.5807C31.6295 51.6807 32.0295 51.8807 32.3295 51.9807C32.3295 51.9807 32.4295 51.9807 32.5295 52.0807V35.2807C32.5295 34.8807 32.8295 34.5807 33.2295 34.5807H51.0295C51.2295 34.5807 51.4295 34.6807 51.5295 34.7807C51.6295 34.1807 51.8295 33.5807 51.9295 32.9807C51.9295 32.7807 52.0295 32.5807 52.0295 32.3807C52.0295 32.1807 52.0295 32.0807 52.0295 31.9807ZM52.0295 31.9807C51.9295 31.9807 51.7295 31.8807 51.6295 31.8807C51.4295 31.8807 51.2295 31.8807 51.0295 31.8807H37.1295V30.6807C37.1295 30.2807 37.4295 29.9807 37.8295 29.9807H42.0295C42.0295 29.8807 41.9295 29.6807 41.9295 29.5807C41.3295 27.5807 40.6295 25.6807 39.8295 23.7807C39.3295 24.3807 39.0295 25.1807 39.0295 25.9807V27.1807H37.8295C35.9295 27.1807 34.3295 28.6807 34.3295 30.6807V31.8807H33.1295C32.7295 31.8807 32.4295 31.9807 32.0295 32.0807C31.4295 32.1807 30.8295 32.5807 30.4295 33.1807C30.0295 33.7807 29.7295 34.4807 29.7295 35.2807V36.3807L29.8295 36.5807H29.7295V50.7807C30.2295 51.0807 30.6295 51.2807 31.1295 51.4807C31.2295 51.4807 31.2295 51.4807 31.3295 51.5807C31.6295 51.6807 32.0295 51.8807 32.3295 51.9807C32.3295 51.9807 32.4295 51.9807 32.5295 52.0807V35.2807C32.5295 34.8807 32.8295 34.5807 33.2295 34.5807H51.0295C51.2295 34.5807 51.4295 34.6807 51.5295 34.7807C51.6295 34.1807 51.8295 33.5807 51.9295 32.9807C51.9295 32.7807 52.0295 32.5807 52.0295 32.3807C52.0295 32.1807 52.0295 32.0807 52.0295 31.9807ZM52.0295 31.9807C51.9295 31.9807 51.7295 31.8807 51.6295 31.8807C51.4295 31.8807 51.2295 31.8807 51.0295 31.8807H37.1295V30.6807C37.1295 30.2807 37.4295 29.9807 37.8295 29.9807H42.0295C42.0295 29.8807 41.9295 29.6807 41.9295 29.5807C41.3295 27.5807 40.6295 25.6807 39.8295 23.7807C39.3295 24.3807 39.0295 25.1807 39.0295 25.9807V27.1807H37.8295C35.9295 27.1807 34.3295 28.6807 34.3295 30.6807V31.8807H33.1295C32.7295 31.8807 32.4295 31.9807 32.0295 32.0807C31.4295 32.1807 30.8295 32.5807 30.4295 33.1807C30.0295 33.7807 29.7295 34.4807 29.7295 35.2807V36.3807L29.8295 36.5807H29.7295V50.7807C30.2295 51.0807 30.6295 51.2807 31.1295 51.4807C31.2295 51.4807 31.2295 51.4807 31.3295 51.5807C31.6295 51.6807 32.0295 51.8807 32.3295 51.9807C32.3295 51.9807 32.4295 51.9807 32.5295 52.0807V35.2807C32.5295 34.8807 32.8295 34.5807 33.2295 34.5807H51.0295C51.2295 34.5807 51.4295 34.6807 51.5295 34.7807C51.6295 34.1807 51.8295 33.5807 51.9295 32.9807C51.9295 32.7807 52.0295 32.5807 52.0295 32.3807C52.0295 32.1807 52.0295 32.0807 52.0295 31.9807ZM52.0295 31.9807C51.9295 31.9807 51.7295 31.8807 51.6295 31.8807C51.4295 31.8807 51.2295 31.8807 51.0295 31.8807H37.1295V30.6807C37.1295 30.2807 37.4295 29.9807 37.8295 29.9807H42.0295C42.0295 29.8807 41.9295 29.6807 41.9295 29.5807C41.3295 27.5807 40.6295 25.6807 39.8295 23.7807C39.3295 24.3807 39.0295 25.1807 39.0295 25.9807V27.1807H37.8295C35.9295 27.1807 34.3295 28.6807 34.3295 30.6807V31.8807H33.1295C32.7295 31.8807 32.4295 31.9807 32.0295 32.0807C31.4295 32.1807 30.8295 32.5807 30.4295 33.1807C30.0295 33.7807 29.7295 34.4807 29.7295 35.2807V36.3807L29.8295 36.5807H29.7295V50.7807C30.2295 51.0807 30.6295 51.2807 31.1295 51.4807C31.2295 51.4807 31.2295 51.4807 31.3295 51.5807C31.6295 51.6807 32.0295 51.8807 32.3295 51.9807C32.3295 51.9807 32.4295 51.9807 32.5295 52.0807V35.2807C32.5295 34.8807 32.8295 34.5807 33.2295 34.5807H51.0295C51.2295 34.5807 51.4295 34.6807 51.5295 34.7807C51.6295 34.1807 51.8295 33.5807 51.9295 32.9807C51.9295 32.7807 52.0295 32.5807 52.0295 32.3807C52.0295 32.1807 52.0295 32.0807 52.0295 31.9807ZM52.0295 31.9807C51.9295 31.9807 51.7295 31.8807 51.6295 31.8807C51.4295 31.8807 51.2295 31.8807 51.0295 31.8807H37.1295V30.6807C37.1295 30.2807 37.4295 29.9807 37.8295 29.9807H42.0295C42.0295 29.8807 41.9295 29.6807 41.9295 29.5807C41.3295 27.5807 40.6295 25.6807 39.8295 23.7807C39.3295 24.3807 39.0295 25.1807 39.0295 25.9807V27.1807H37.8295C35.9295 27.1807 34.3295 28.6807 34.3295 30.6807V31.8807H33.1295C32.7295 31.8807 32.4295 31.9807 32.0295 32.0807C31.4295 32.1807 30.8295 32.5807 30.4295 33.1807C30.0295 33.7807 29.7295 34.4807 29.7295 35.2807V36.3807L29.8295 36.5807H29.7295V50.7807C30.2295 51.0807 30.6295 51.2807 31.1295 51.4807C31.2295 51.4807 31.2295 51.4807 31.3295 51.5807C31.6295 51.6807 32.0295 51.8807 32.3295 51.9807C32.3295 51.9807 32.4295 51.9807 32.5295 52.0807V35.2807C32.5295 34.8807 32.8295 34.5807 33.2295 34.5807H51.0295C51.2295 34.5807 51.4295 34.6807 51.5295 34.7807C51.6295 34.1807 51.8295 33.5807 51.9295 32.9807C51.9295 32.7807 52.0295 32.5807 52.0295 32.3807C52.0295 32.1807 52.0295 32.0807 52.0295 31.9807ZM52.2295 28.0807C52.2295 27.9807 52.2295 27.7807 52.2295 27.6807C52.2295 27.5807 52.2295 27.3807 52.2295 27.2807C52.2295 27.2807 52.2295 27.1807 52.2295 27.0807H44.3295C43.5295 27.8807 42.7295 28.6807 41.9295 29.4807C41.9295 29.5807 42.0295 29.7807 42.0295 29.8807H52.2295C52.2295 29.6807 52.2295 29.4807 52.2295 29.2807C52.2295 28.9807 52.2295 28.7807 52.2295 28.4807V28.2807C52.2295 28.2807 52.2295 28.1807 52.2295 28.0807ZM52.0295 31.9807C51.9295 31.9807 51.7295 31.8807 51.6295 31.8807C51.4295 31.8807 51.2295 31.8807 51.0295 31.8807H37.1295V30.6807C37.1295 30.2807 37.4295 29.9807 37.8295 29.9807H42.0295C42.0295 29.8807 41.9295 29.6807 41.9295 29.5807C41.3295 27.5807 40.6295 25.6807 39.8295 23.7807C39.3295 24.3807 39.0295 25.1807 39.0295 25.9807V27.1807H37.8295C35.9295 27.1807 34.3295 28.6807 34.3295 30.6807V31.8807H33.1295C32.7295 31.8807 32.4295 31.9807 32.0295 32.0807C31.4295 32.1807 30.8295 32.5807 30.4295 33.1807C30.0295 33.7807 29.7295 34.4807 29.7295 35.2807V36.3807L29.8295 36.5807H29.7295V50.7807C30.2295 51.0807 30.6295 51.2807 31.1295 51.4807C31.2295 51.4807 31.2295 51.4807 31.3295 51.5807C31.6295 51.6807 32.0295 51.8807 32.3295 51.9807C32.3295 51.9807 32.4295 51.9807 32.5295 52.0807V35.2807C32.5295 34.8807 32.8295 34.5807 33.2295 34.5807H51.0295C51.2295 34.5807 51.4295 34.6807 51.5295 34.7807C51.6295 34.1807 51.8295 33.5807 51.9295 32.9807C51.9295 32.7807 52.0295 32.5807 52.0295 32.3807C52.0295 32.1807 52.0295 32.0807 52.0295 31.9807ZM52.2295 28.0807C52.2295 27.9807 52.2295 27.7807 52.2295 27.6807C52.2295 27.5807 52.2295 27.3807 52.2295 27.2807C52.2295 27.2807 52.2295 27.1807 52.2295 27.0807H44.3295C43.5295 27.8807 42.7295 28.6807 41.9295 29.4807C41.9295 29.5807 42.0295 29.7807 42.0295 29.8807H52.2295C52.2295 29.6807 52.2295 29.4807 52.2295 29.2807C52.2295 28.9807 52.2295 28.7807 52.2295 28.4807V28.2807C52.2295 28.2807 52.2295 28.1807 52.2295 28.0807ZM52.0295 31.9807C51.9295 31.9807 51.7295 31.8807 51.6295 31.8807C51.4295 31.8807 51.2295 31.8807 51.0295 31.8807H37.1295V30.6807C37.1295 30.2807 37.4295 29.9807 37.8295 29.9807H42.0295C42.0295 29.8807 41.9295 29.6807 41.9295 29.5807C41.3295 27.5807 40.6295 25.6807 39.8295 23.7807C39.3295 24.3807 39.0295 25.1807 39.0295 25.9807V27.1807H37.8295C35.9295 27.1807 34.3295 28.6807 34.3295 30.6807V31.8807H33.1295C32.7295 31.8807 32.4295 31.9807 32.0295 32.0807C31.4295 32.1807 30.8295 32.5807 30.4295 33.1807C30.0295 33.7807 29.7295 34.4807 29.7295 35.2807V36.3807L29.8295 36.5807H29.7295V50.7807C30.2295 51.0807 30.6295 51.2807 31.1295 51.4807C31.2295 51.4807 31.2295 51.4807 31.3295 51.5807C31.6295 51.6807 32.0295 51.8807 32.3295 51.9807C32.3295 51.9807 32.4295 51.9807 32.5295 52.0807V35.2807C32.5295 34.8807 32.8295 34.5807 33.2295 34.5807H51.0295C51.2295 34.5807 51.4295 34.6807 51.5295 34.7807C51.6295 34.1807 51.8295 33.5807 51.9295 32.9807C51.9295 32.7807 52.0295 32.5807 52.0295 32.3807C52.0295 32.1807 52.0295 32.0807 52.0295 31.9807ZM52.2295 28.0807C52.2295 27.9807 52.2295 27.7807 52.2295 27.6807C52.2295 27.5807 52.2295 27.3807 52.2295 27.2807C52.2295 27.2807 52.2295 27.1807 52.2295 27.0807H44.3295C43.5295 27.8807 42.7295 28.6807 41.9295 29.4807C41.9295 29.5807 42.0295 29.7807 42.0295 29.8807H52.2295C52.2295 29.6807 52.2295 29.4807 52.2295 29.2807C52.2295 28.9807 52.2295 28.7807 52.2295 28.4807V28.2807C52.2295 28.2807 52.2295 28.1807 52.2295 28.0807ZM52.0295 31.9807C51.9295 31.9807 51.7295 31.8807 51.6295 31.8807C51.4295 31.8807 51.2295 31.8807 51.0295 31.8807H37.1295V30.6807C37.1295 30.2807 37.4295 29.9807 37.8295 29.9807H42.0295C42.0295 29.8807 41.9295 29.6807 41.9295 29.5807C41.3295 27.5807 40.6295 25.6807 39.8295 23.7807C39.3295 24.3807 39.0295 25.1807 39.0295 25.9807V27.1807H37.8295C35.9295 27.1807 34.3295 28.6807 34.3295 30.6807V31.8807H33.1295C32.7295 31.8807 32.4295 31.9807 32.0295 32.0807C31.4295 32.1807 30.8295 32.5807 30.4295 33.1807C30.0295 33.7807 29.7295 34.4807 29.7295 35.2807V36.3807L29.8295 36.5807H29.7295V50.7807C30.2295 51.0807 30.6295 51.2807 31.1295 51.4807C31.2295 51.4807 31.2295 51.4807 31.3295 51.5807C31.6295 51.6807 32.0295 51.8807 32.3295 51.9807C32.3295 51.9807 32.4295 51.9807 32.5295 52.0807V35.2807C32.5295 34.8807 32.8295 34.5807 33.2295 34.5807H51.0295C51.2295 34.5807 51.4295 34.6807 51.5295 34.7807C51.6295 34.1807 51.8295 33.5807 51.9295 32.9807C51.9295 32.7807 52.0295 32.5807 52.0295 32.3807C52.0295 32.1807 52.0295 32.0807 52.0295 31.9807ZM51.7295 23.7807C51.6295 23.4807 51.6295 23.2807 51.5295 22.9807C51.5295 22.8807 51.4295 22.6807 51.4295 22.4807H42.4295C42.1295 22.4807 41.7295 22.5807 41.4295 22.5807C40.7295 22.7807 40.1295 23.1807 39.7295 23.6807C40.6295 25.4807 41.3295 27.4807 41.8295 29.4807C42.6295 28.7807 43.5295 27.9807 44.2295 27.0807H41.6295V25.8807C41.6295 25.4807 41.9295 25.1807 42.3295 25.1807H51.9295C51.9295 24.7807 51.8295 24.2807 51.7295 23.7807ZM52.2295 28.0807C52.2295 27.9807 52.2295 27.7807 52.2295 27.6807C52.2295 27.5807 52.2295 27.3807 52.2295 27.2807C52.2295 27.2807 52.2295 27.1807 52.2295 27.0807H44.3295C43.5295 27.8807 42.7295 28.6807 41.9295 29.4807C41.9295 29.5807 42.0295 29.7807 42.0295 29.8807H52.2295C52.2295 29.6807 52.2295 29.4807 52.2295 29.2807C52.2295 28.9807 52.2295 28.7807 52.2295 28.4807V28.2807C52.2295 28.2807 52.2295 28.1807 52.2295 28.0807ZM52.0295 31.9807C51.9295 31.9807 51.7295 31.8807 51.6295 31.8807C51.4295 31.8807 51.2295 31.8807 51.0295 31.8807H37.1295V30.6807C37.1295 30.2807 37.4295 29.9807 37.8295 29.9807H42.0295C42.0295 29.8807 41.9295 29.6807 41.9295 29.5807C41.3295 27.5807 40.6295 25.6807 39.8295 23.7807C39.3295 24.3807 39.0295 25.1807 39.0295 25.9807V27.1807H37.8295C35.9295 27.1807 34.3295 28.6807 34.3295 30.6807V31.8807H33.1295C32.7295 31.8807 32.4295 31.9807 32.0295 32.0807C31.4295 32.1807 30.8295 32.5807 30.4295 33.1807C30.0295 33.7807 29.7295 34.4807 29.7295 35.2807V36.3807L29.8295 36.5807H29.7295V50.7807C30.2295 51.0807 30.6295 51.2807 31.1295 51.4807C31.2295 51.4807 31.2295 51.4807 31.3295 51.5807C31.6295 51.6807 32.0295 51.8807 32.3295 51.9807C32.3295 51.9807 32.4295 51.9807 32.5295 52.0807V35.2807C32.5295 34.8807 32.8295 34.5807 33.2295 34.5807H51.0295C51.2295 34.5807 51.4295 34.6807 51.5295 34.7807C51.6295 34.1807 51.8295 33.5807 51.9295 32.9807C51.9295 32.7807 52.0295 32.5807 52.0295 32.3807C52.0295 32.1807 52.0295 32.0807 52.0295 31.9807ZM51.7295 23.7807C51.6295 23.4807 51.6295 23.2807 51.5295 22.9807C51.5295 22.8807 51.4295 22.6807 51.4295 22.4807H42.4295C42.1295 22.4807 41.7295 22.5807 41.4295 22.5807C40.7295 22.7807 40.1295 23.1807 39.7295 23.6807C40.6295 25.4807 41.3295 27.4807 41.8295 29.4807C42.6295 28.7807 43.5295 27.9807 44.2295 27.0807H41.6295V25.8807C41.6295 25.4807 41.9295 25.1807 42.3295 25.1807H51.9295C51.9295 24.7807 51.8295 24.2807 51.7295 23.7807ZM52.2295 28.0807C52.2295 27.9807 52.2295 27.7807 52.2295 27.6807C52.2295 27.5807 52.2295 27.3807 52.2295 27.2807C52.2295 27.2807 52.2295 27.1807 52.2295 27.0807H44.3295C43.5295 27.8807 42.7295 28.6807 41.9295 29.4807C41.9295 29.5807 42.0295 29.7807 42.0295 29.8807H52.2295C52.2295 29.6807 52.2295 29.4807 52.2295 29.2807C52.2295 28.9807 52.2295 28.7807 52.2295 28.4807V28.2807C52.2295 28.2807 52.2295 28.1807 52.2295 28.0807ZM52.0295 31.9807C51.9295 31.9807 51.7295 31.8807 51.6295 31.8807C51.4295 31.8807 51.2295 31.8807 51.0295 31.8807H37.1295V30.6807C37.1295 30.2807 37.4295 29.9807 37.8295 29.9807H42.0295C42.0295 29.8807 41.9295 29.6807 41.9295 29.5807C41.3295 27.5807 40.6295 25.6807 39.8295 23.7807C39.3295 24.3807 39.0295 25.1807 39.0295 25.9807V27.1807H37.8295C35.9295 27.1807 34.3295 28.6807 34.3295 30.6807V31.8807H33.1295C32.7295 31.8807 32.4295 31.9807 32.0295 32.0807C31.4295 32.1807 30.8295 32.5807 30.4295 33.1807C30.0295 33.7807 29.7295 34.4807 29.7295 35.2807V36.3807L29.8295 36.5807H29.7295V50.7807C30.2295 51.0807 30.6295 51.2807 31.1295 51.4807C31.2295 51.4807 31.2295 51.4807 31.3295 51.5807C31.6295 51.6807 32.0295 51.8807 32.3295 51.9807C32.3295 51.9807 32.4295 51.9807 32.5295 52.0807V35.2807C32.5295 34.8807 32.8295 34.5807 33.2295 34.5807H51.0295C51.2295 34.5807 51.4295 34.6807 51.5295 34.7807C51.6295 34.1807 51.8295 33.5807 51.9295 32.9807C51.9295 32.7807 52.0295 32.5807 52.0295 32.3807C52.0295 32.1807 52.0295 32.0807 52.0295 31.9807ZM51.7295 23.7807C51.6295 23.4807 51.6295 23.2807 51.5295 22.9807C51.5295 22.8807 51.4295 22.6807 51.4295 22.4807H42.4295C42.1295 22.4807 41.7295 22.5807 41.4295 22.5807C40.7295 22.7807 40.1295 23.1807 39.7295 23.6807C40.6295 25.4807 41.3295 27.4807 41.8295 29.4807C42.6295 28.7807 43.5295 27.9807 44.2295 27.0807H41.6295V25.8807C41.6295 25.4807 41.9295 25.1807 42.3295 25.1807H51.9295C51.9295 24.7807 51.8295 24.2807 51.7295 23.7807ZM52.2295 28.0807C52.2295 27.9807 52.2295 27.7807 52.2295 27.6807C52.2295 27.5807 52.2295 27.3807 52.2295 27.2807C52.2295 27.2807 52.2295 27.1807 52.2295 27.0807H44.3295C43.5295 27.8807 42.7295 28.6807 41.9295 29.4807C41.9295 29.5807 42.0295 29.7807 42.0295 29.8807H52.2295C52.2295 29.6807 52.2295 29.4807 52.2295 29.2807C52.2295 28.9807 52.2295 28.7807 52.2295 28.4807V28.2807C52.2295 28.2807 52.2295 28.1807 52.2295 28.0807ZM52.0295 31.9807C51.9295 31.9807 51.7295 31.8807 51.6295 31.8807C51.4295 31.8807 51.2295 31.8807 51.0295 31.8807H37.1295V30.6807C37.1295 30.2807 37.4295 29.9807 37.8295 29.9807H42.0295C42.0295 29.8807 41.9295 29.6807 41.9295 29.5807C41.3295 27.5807 40.6295 25.6807 39.8295 23.7807C39.3295 24.3807 39.0295 25.1807 39.0295 25.9807V27.1807H37.8295C35.9295 27.1807 34.3295 28.6807 34.3295 30.6807V31.8807H33.1295C32.7295 31.8807 32.4295 31.9807 32.0295 32.0807C31.4295 32.1807 30.8295 32.5807 30.4295 33.1807C30.0295 33.7807 29.7295 34.4807 29.7295 35.2807V36.3807L29.8295 36.5807H29.7295V50.7807C30.2295 51.0807 30.6295 51.2807 31.1295 51.4807C31.2295 51.4807 31.2295 51.4807 31.3295 51.5807C31.6295 51.6807 32.0295 51.8807 32.3295 51.9807C32.3295 51.9807 32.4295 51.9807 32.5295 52.0807V35.2807C32.5295 34.8807 32.8295 34.5807 33.2295 34.5807H51.0295C51.2295 34.5807 51.4295 34.6807 51.5295 34.7807C51.6295 34.1807 51.8295 33.5807 51.9295 32.9807C51.9295 32.7807 52.0295 32.5807 52.0295 32.3807C52.0295 32.1807 52.0295 32.0807 52.0295 31.9807ZM60.2295 22.4807H42.4295C42.1295 22.4807 41.7295 22.5807 41.4295 22.5807C40.7295 22.7807 40.1295 23.1807 39.7295 23.6807C39.2295 24.2807 38.9295 25.0807 38.9295 25.8807V27.1807H37.8295C35.9295 27.1807 34.3295 28.6807 34.3295 30.6807V31.8807H33.1295C32.7295 31.8807 32.4295 31.9807 32.0295 32.0807C31.4295 32.1807 30.8295 32.5807 30.4295 33.1807C30.0295 33.7807 29.7295 34.4807 29.7295 35.2807V60.9807C29.7295 62.8807 31.2295 64.4807 33.2295 64.4807H51.0295C52.9295 64.4807 54.5295 62.9807 54.5295 60.9807V59.7807H55.7295C57.6295 59.7807 59.2295 58.2807 59.2295 56.2807V55.0807H60.4295C62.3295 55.0807 63.9295 53.5807 63.9295 51.5807V25.9807C63.7295 24.0807 62.2295 22.4807 60.2295 22.4807ZM51.7295 60.8807C51.7295 61.2807 51.4295 61.5807 51.0295 61.5807H33.2295C32.8295 61.5807 32.5295 61.2807 32.5295 60.8807V35.2807C32.5295 34.8807 32.8295 34.5807 33.2295 34.5807H51.0295C51.2295 34.5807 51.4295 34.6807 51.5295 34.7807C51.6295 34.8807 51.7295 35.0807 51.7295 35.2807V60.8807ZM56.3295 56.2807C56.3295 56.6807 56.0295 56.9807 55.6295 56.9807H54.4295V35.2807C54.4295 35.1807 54.4295 35.0807 54.4295 35.0807C54.4295 34.3807 54.1295 33.7807 53.8295 33.2807C53.7295 33.0807 53.5295 32.8807 53.3295 32.7807C53.2295 32.6807 53.1295 32.6807 53.1295 32.5807C52.8295 32.2807 52.4295 32.0807 52.0295 31.9807C51.9295 31.9807 51.7295 31.8807 51.6295 31.8807C51.4295 31.8807 51.2295 31.8807 51.0295 31.8807H37.1295V30.6807C37.1295 30.2807 37.4295 29.9807 37.8295 29.9807H55.6295C55.8295 29.9807 56.0295 30.0807 56.1295 30.2807C56.2295 30.3807 56.3295 30.5807 56.3295 30.6807V56.2807ZM60.9295 51.6807C60.9295 52.0807 60.6295 52.3807 60.2295 52.3807H59.0295V30.5807C59.0295 28.8807 57.7295 27.4807 56.1295 27.1807C55.9295 27.1807 55.7295 27.1807 55.6295 27.1807H41.7295V25.9807C41.7295 25.5807 42.0295 25.2807 42.4295 25.2807H60.2295C60.6295 25.2807 60.9295 25.5807 60.9295 25.9807V51.6807V51.6807ZM52.0295 31.9807C51.9295 31.9807 51.7295 31.8807 51.6295 31.8807C51.4295 31.8807 51.2295 31.8807 51.0295 31.8807H37.1295V30.6807C37.1295 30.2807 37.4295 29.9807 37.8295 29.9807H42.0295C42.0295 29.8807 41.9295 29.6807 41.9295 29.5807C41.3295 27.5807 40.6295 25.6807 39.8295 23.7807C39.3295 24.3807 39.0295 25.1807 39.0295 25.9807V27.1807H37.8295C35.9295 27.1807 34.3295 28.6807 34.3295 30.6807V31.8807H33.1295C32.7295 31.8807 32.4295 31.9807 32.0295 32.0807C31.4295 32.1807 30.8295 32.5807 30.4295 33.1807C30.0295 33.7807 29.7295 34.4807 29.7295 35.2807V36.3807L29.8295 36.5807H29.7295V50.7807C30.2295 51.0807 30.6295 51.2807 31.1295 51.4807C31.2295 51.4807 31.2295 51.4807 31.3295 51.5807C31.6295 51.6807 32.0295 51.8807 32.3295 51.9807C32.3295 51.9807 32.4295 51.9807 32.5295 52.0807V35.2807C32.5295 34.8807 32.8295 34.5807 33.2295 34.5807H51.0295C51.2295 34.5807 51.4295 34.6807 51.5295 34.7807C51.6295 34.1807 51.8295 33.5807 51.9295 32.9807C51.9295 32.7807 52.0295 32.5807 52.0295 32.3807C52.0295 32.1807 52.0295 32.0807 52.0295 31.9807ZM52.2295 28.0807C52.2295 27.9807 52.2295 27.7807 52.2295 27.6807C52.2295 27.5807 52.2295 27.3807 52.2295 27.2807C52.2295 27.2807 52.2295 27.1807 52.2295 27.0807H44.3295C43.5295 27.8807 42.7295 28.6807 41.9295 29.4807C41.9295 29.5807 42.0295 29.7807 42.0295 29.8807H52.2295C52.2295 29.6807 52.2295 29.4807 52.2295 29.2807C52.2295 28.9807 52.2295 28.7807 52.2295 28.4807V28.2807C52.2295 28.2807 52.2295 28.1807 52.2295 28.0807ZM51.7295 23.7807C51.6295 23.4807 51.6295 23.2807 51.5295 22.9807C51.5295 22.8807 51.4295 22.6807 51.4295 22.4807H42.4295C42.1295 22.4807 41.7295 22.5807 41.4295 22.5807C40.7295 22.7807 40.1295 23.1807 39.7295 23.6807C40.6295 25.4807 41.3295 27.4807 41.8295 29.4807C42.6295 28.7807 43.5295 27.9807 44.2295 27.0807H41.6295V25.8807C41.6295 25.4807 41.9295 25.1807 42.3295 25.1807H51.9295C51.9295 24.7807 51.8295 24.2807 51.7295 23.7807ZM52.0295 31.9807C51.9295 31.9807 51.7295 31.8807 51.6295 31.8807C51.4295 31.8807 51.2295 31.8807 51.0295 31.8807H37.1295V30.6807C37.1295 30.2807 37.4295 29.9807 37.8295 29.9807H42.0295C42.0295 29.8807 41.9295 29.6807 41.9295 29.5807C41.3295 27.5807 40.6295 25.6807 39.8295 23.7807C39.3295 24.3807 39.0295 25.1807 39.0295 25.9807V27.1807H37.8295C35.9295 27.1807 34.3295 28.6807 34.3295 30.6807V31.8807H33.1295C32.7295 31.8807 32.4295 31.9807 32.0295 32.0807C31.4295 32.1807 30.8295 32.5807 30.4295 33.1807C30.0295 33.7807 29.7295 34.4807 29.7295 35.2807V36.3807L29.8295 36.5807H29.7295V50.7807C30.2295 51.0807 30.6295 51.2807 31.1295 51.4807C31.2295 51.4807 31.2295 51.4807 31.3295 51.5807C31.6295 51.6807 32.0295 51.8807 32.3295 51.9807C32.3295 51.9807 32.4295 51.9807 32.5295 52.0807V35.2807C32.5295 34.8807 32.8295 34.5807 33.2295 34.5807H51.0295C51.2295 34.5807 51.4295 34.6807 51.5295 34.7807C51.6295 34.1807 51.8295 33.5807 51.9295 32.9807C51.9295 32.7807 52.0295 32.5807 52.0295 32.3807C52.0295 32.1807 52.0295 32.0807 52.0295 31.9807ZM52.2295 28.0807C52.2295 27.9807 52.2295 27.7807 52.2295 27.6807C52.2295 27.5807 52.2295 27.3807 52.2295 27.2807C52.2295 27.2807 52.2295 27.1807 52.2295 27.0807H44.3295C43.5295 27.8807 42.7295 28.6807 41.9295 29.4807C41.9295 29.5807 42.0295 29.7807 42.0295 29.8807H52.2295C52.2295 29.6807 52.2295 29.4807 52.2295 29.2807C52.2295 28.9807 52.2295 28.7807 52.2295 28.4807V28.2807C52.2295 28.2807 52.2295 28.1807 52.2295 28.0807ZM51.7295 23.7807C51.6295 23.4807 51.6295 23.2807 51.5295 22.9807C51.5295 22.8807 51.4295 22.6807 51.4295 22.4807H42.4295C42.1295 22.4807 41.7295 22.5807 41.4295 22.5807C40.7295 22.7807 40.1295 23.1807 39.7295 23.6807C40.6295 25.4807 41.3295 27.4807 41.8295 29.4807C42.6295 28.7807 43.5295 27.9807 44.2295 27.0807H41.6295V25.8807C41.6295 25.4807 41.9295 25.1807 42.3295 25.1807H51.9295C51.9295 24.7807 51.8295 24.2807 51.7295 23.7807ZM52.0295 31.9807C51.9295 31.9807 51.7295 31.8807 51.6295 31.8807C51.4295 31.8807 51.2295 31.8807 51.0295 31.8807H37.1295V30.6807C37.1295 30.2807 37.4295 29.9807 37.8295 29.9807H42.0295C42.0295 29.8807 41.9295 29.6807 41.9295 29.5807C41.3295 27.5807 40.6295 25.6807 39.8295 23.7807C39.3295 24.3807 39.0295 25.1807 39.0295 25.9807V27.1807H37.8295C35.9295 27.1807 34.3295 28.6807 34.3295 30.6807V31.8807H33.1295C32.7295 31.8807 32.4295 31.9807 32.0295 32.0807C31.4295 32.1807 30.8295 32.5807 30.4295 33.1807C30.0295 33.7807 29.7295 34.4807 29.7295 35.2807V36.3807L29.8295 36.5807H29.7295V50.7807C30.2295 51.0807 30.6295 51.2807 31.1295 51.4807C31.2295 51.4807 31.2295 51.4807 31.3295 51.5807C31.6295 51.6807 32.0295 51.8807 32.3295 51.9807C32.3295 51.9807 32.4295 51.9807 32.5295 52.0807V35.2807C32.5295 34.8807 32.8295 34.5807 33.2295 34.5807H51.0295C51.2295 34.5807 51.4295 34.6807 51.5295 34.7807C51.6295 34.1807 51.8295 33.5807 51.9295 32.9807C51.9295 32.7807 52.0295 32.5807 52.0295 32.3807C52.0295 32.1807 52.0295 32.0807 52.0295 31.9807ZM52.2295 28.0807C52.2295 27.9807 52.2295 27.7807 52.2295 27.6807C52.2295 27.5807 52.2295 27.3807 52.2295 27.2807C52.2295 27.2807 52.2295 27.1807 52.2295 27.0807H44.3295C43.5295 27.8807 42.7295 28.6807 41.9295 29.4807C41.9295 29.5807 42.0295 29.7807 42.0295 29.8807H52.2295C52.2295 29.6807 52.2295 29.4807 52.2295 29.2807C52.2295 28.9807 52.2295 28.7807 52.2295 28.4807V28.2807C52.2295 28.2807 52.2295 28.1807 52.2295 28.0807ZM52.0295 31.9807C51.9295 31.9807 51.7295 31.8807 51.6295 31.8807C51.4295 31.8807 51.2295 31.8807 51.0295 31.8807H37.1295V30.6807C37.1295 30.2807 37.4295 29.9807 37.8295 29.9807H42.0295C42.0295 29.8807 41.9295 29.6807 41.9295 29.5807C41.3295 27.5807 40.6295 25.6807 39.8295 23.7807C39.3295 24.3807 39.0295 25.1807 39.0295 25.9807V27.1807H37.8295C35.9295 27.1807 34.3295 28.6807 34.3295 30.6807V31.8807H33.1295C32.7295 31.8807 32.4295 31.9807 32.0295 32.0807C31.4295 32.1807 30.8295 32.5807 30.4295 33.1807C30.0295 33.7807 29.7295 34.4807 29.7295 35.2807V36.3807L29.8295 36.5807H29.7295V50.7807C30.2295 51.0807 30.6295 51.2807 31.1295 51.4807C31.2295 51.4807 31.2295 51.4807 31.3295 51.5807C31.6295 51.6807 32.0295 51.8807 32.3295 51.9807C32.3295 51.9807 32.4295 51.9807 32.5295 52.0807V35.2807C32.5295 34.8807 32.8295 34.5807 33.2295 34.5807H51.0295C51.2295 34.5807 51.4295 34.6807 51.5295 34.7807C51.6295 34.1807 51.8295 33.5807 51.9295 32.9807C51.9295 32.7807 52.0295 32.5807 52.0295 32.3807C52.0295 32.1807 52.0295 32.0807 52.0295 31.9807ZM52.2295 28.0807C52.2295 27.9807 52.2295 27.7807 52.2295 27.6807C52.2295 27.5807 52.2295 27.3807 52.2295 27.2807C52.2295 27.2807 52.2295 27.1807 52.2295 27.0807H44.3295C43.5295 27.8807 42.7295 28.6807 41.9295 29.4807C41.9295 29.5807 42.0295 29.7807 42.0295 29.8807H52.2295C52.2295 29.6807 52.2295 29.4807 52.2295 29.2807C52.2295 28.9807 52.2295 28.7807 52.2295 28.4807V28.2807C52.2295 28.2807 52.2295 28.1807 52.2295 28.0807ZM52.0295 31.9807C51.9295 31.9807 51.7295 31.8807 51.6295 31.8807C51.4295 31.8807 51.2295 31.8807 51.0295 31.8807H37.1295V30.6807C37.1295 30.2807 37.4295 29.9807 37.8295 29.9807H42.0295C42.0295 29.8807 41.9295 29.6807 41.9295 29.5807C41.3295 27.5807 40.6295 25.6807 39.8295 23.7807C39.3295 24.3807 39.0295 25.1807 39.0295 25.9807V27.1807H37.8295C35.9295 27.1807 34.3295 28.6807 34.3295 30.6807V31.8807H33.1295C32.7295 31.8807 32.4295 31.9807 32.0295 32.0807C31.4295 32.1807 30.8295 32.5807 30.4295 33.1807C30.0295 33.7807 29.7295 34.4807 29.7295 35.2807V36.3807L29.8295 36.5807H29.7295V50.7807C30.2295 51.0807 30.6295 51.2807 31.1295 51.4807C31.2295 51.4807 31.2295 51.4807 31.3295 51.5807C31.6295 51.6807 32.0295 51.8807 32.3295 51.9807C32.3295 51.9807 32.4295 51.9807 32.5295 52.0807V35.2807C32.5295 34.8807 32.8295 34.5807 33.2295 34.5807H51.0295C51.2295 34.5807 51.4295 34.6807 51.5295 34.7807C51.6295 34.1807 51.8295 33.5807 51.9295 32.9807C51.9295 32.7807 52.0295 32.5807 52.0295 32.3807C52.0295 32.1807 52.0295 32.0807 52.0295 31.9807ZM52.2295 28.0807C52.2295 27.9807 52.2295 27.7807 52.2295 27.6807C52.2295 27.5807 52.2295 27.3807 52.2295 27.2807C52.2295 27.2807 52.2295 27.1807 52.2295 27.0807H44.3295C43.5295 27.8807 42.7295 28.6807 41.9295 29.4807C41.9295 29.5807 42.0295 29.7807 42.0295 29.8807H52.2295C52.2295 29.6807 52.2295 29.4807 52.2295 29.2807C52.2295 28.9807 52.2295 28.7807 52.2295 28.4807V28.2807C52.2295 28.2807 52.2295 28.1807 52.2295 28.0807ZM52.0295 31.9807C51.9295 31.9807 51.7295 31.8807 51.6295 31.8807C51.4295 31.8807 51.2295 31.8807 51.0295 31.8807H37.1295V30.6807C37.1295 30.2807 37.4295 29.9807 37.8295 29.9807H42.0295C42.0295 29.8807 41.9295 29.6807 41.9295 29.5807C41.3295 27.5807 40.6295 25.6807 39.8295 23.7807C39.3295 24.3807 39.0295 25.1807 39.0295 25.9807V27.1807H37.8295C35.9295 27.1807 34.3295 28.6807 34.3295 30.6807V31.8807H33.1295C32.7295 31.8807 32.4295 31.9807 32.0295 32.0807C31.4295 32.1807 30.8295 32.5807 30.4295 33.1807C30.0295 33.7807 29.7295 34.4807 29.7295 35.2807V36.3807L29.8295 36.5807H29.7295V50.7807C30.2295 51.0807 30.6295 51.2807 31.1295 51.4807C31.2295 51.4807 31.2295 51.4807 31.3295 51.5807C31.6295 51.6807 32.0295 51.8807 32.3295 51.9807C32.3295 51.9807 32.4295 51.9807 32.5295 52.0807V35.2807C32.5295 34.8807 32.8295 34.5807 33.2295 34.5807H51.0295C51.2295 34.5807 51.4295 34.6807 51.5295 34.7807C51.6295 34.1807 51.8295 33.5807 51.9295 32.9807C51.9295 32.7807 52.0295 32.5807 52.0295 32.3807C52.0295 32.1807 52.0295 32.0807 52.0295 31.9807ZM52.0295 31.9807C51.9295 31.9807 51.7295 31.8807 51.6295 31.8807C51.4295 31.8807 51.2295 31.8807 51.0295 31.8807H37.1295V30.6807C37.1295 30.2807 37.4295 29.9807 37.8295 29.9807H42.0295C42.0295 29.8807 41.9295 29.6807 41.9295 29.5807C41.3295 27.5807 40.6295 25.6807 39.8295 23.7807C39.3295 24.3807 39.0295 25.1807 39.0295 25.9807V27.1807H37.8295C35.9295 27.1807 34.3295 28.6807 34.3295 30.6807V31.8807H33.1295C32.7295 31.8807 32.4295 31.9807 32.0295 32.0807C31.4295 32.1807 30.8295 32.5807 30.4295 33.1807C30.0295 33.7807 29.7295 34.4807 29.7295 35.2807V36.3807L29.8295 36.5807H29.7295V50.7807C30.2295 51.0807 30.6295 51.2807 31.1295 51.4807C31.2295 51.4807 31.2295 51.4807 31.3295 51.5807C31.6295 51.6807 32.0295 51.8807 32.3295 51.9807C32.3295 51.9807 32.4295 51.9807 32.5295 52.0807V35.2807C32.5295 34.8807 32.8295 34.5807 33.2295 34.5807H51.0295C51.2295 34.5807 51.4295 34.6807 51.5295 34.7807C51.6295 34.1807 51.8295 33.5807 51.9295 32.9807C51.9295 32.7807 52.0295 32.5807 52.0295 32.3807C52.0295 32.1807 52.0295 32.0807 52.0295 31.9807ZM52.0295 31.9807C51.9295 31.9807 51.7295 31.8807 51.6295 31.8807C51.4295 31.8807 51.2295 31.8807 51.0295 31.8807H37.1295V30.6807C37.1295 30.2807 37.4295 29.9807 37.8295 29.9807H42.0295C42.0295 29.8807 41.9295 29.6807 41.9295 29.5807C41.3295 27.5807 40.6295 25.6807 39.8295 23.7807C39.3295 24.3807 39.0295 25.1807 39.0295 25.9807V27.1807H37.8295C35.9295 27.1807 34.3295 28.6807 34.3295 30.6807V31.8807H33.1295C32.7295 31.8807 32.4295 31.9807 32.0295 32.0807C31.4295 32.1807 30.8295 32.5807 30.4295 33.1807C30.0295 33.7807 29.7295 34.4807 29.7295 35.2807V36.3807L29.8295 36.5807H29.7295V50.7807C30.2295 51.0807 30.6295 51.2807 31.1295 51.4807C31.2295 51.4807 31.2295 51.4807 31.3295 51.5807C31.6295 51.6807 32.0295 51.8807 32.3295 51.9807C32.3295 51.9807 32.4295 51.9807 32.5295 52.0807V35.2807C32.5295 34.8807 32.8295 34.5807 33.2295 34.5807H51.0295C51.2295 34.5807 51.4295 34.6807 51.5295 34.7807C51.6295 34.1807 51.8295 33.5807 51.9295 32.9807C51.9295 32.7807 52.0295 32.5807 52.0295 32.3807C52.0295 32.1807 52.0295 32.0807 52.0295 31.9807ZM52.0295 31.9807C51.9295 31.9807 51.7295 31.8807 51.6295 31.8807C51.4295 31.8807 51.2295 31.8807 51.0295 31.8807H37.1295V30.6807C37.1295 30.2807 37.4295 29.9807 37.8295 29.9807H42.0295C42.0295 29.8807 41.9295 29.6807 41.9295 29.5807C41.3295 27.5807 40.6295 25.6807 39.8295 23.7807C39.3295 24.3807 39.0295 25.1807 39.0295 25.9807V27.1807H37.8295C35.9295 27.1807 34.3295 28.6807 34.3295 30.6807V31.8807H33.1295C32.7295 31.8807 32.4295 31.9807 32.0295 32.0807C31.4295 32.1807 30.8295 32.5807 30.4295 33.1807C30.0295 33.7807 29.7295 34.4807 29.7295 35.2807V36.3807L29.8295 36.5807H29.7295V50.7807C30.2295 51.0807 30.6295 51.2807 31.1295 51.4807C31.2295 51.4807 31.2295 51.4807 31.3295 51.5807C31.6295 51.6807 32.0295 51.8807 32.3295 51.9807C32.3295 51.9807 32.4295 51.9807 32.5295 52.0807V35.2807C32.5295 34.8807 32.8295 34.5807 33.2295 34.5807H51.0295C51.2295 34.5807 51.4295 34.6807 51.5295 34.7807C51.6295 34.1807 51.8295 33.5807 51.9295 32.9807C51.9295 32.7807 52.0295 32.5807 52.0295 32.3807C52.0295 32.1807 52.0295 32.0807 52.0295 31.9807ZM52.0295 31.9807C51.9295 31.9807 51.7295 31.8807 51.6295 31.8807C51.4295 31.8807 51.2295 31.8807 51.0295 31.8807H37.1295V30.6807C37.1295 30.2807 37.4295 29.9807 37.8295 29.9807H42.0295C42.0295 29.8807 41.9295 29.6807 41.9295 29.5807C41.3295 27.5807 40.6295 25.6807 39.8295 23.7807C39.3295 24.3807 39.0295 25.1807 39.0295 25.9807V27.1807H37.8295C35.9295 27.1807 34.3295 28.6807 34.3295 30.6807V31.8807H33.1295C32.7295 31.8807 32.4295 31.9807 32.0295 32.0807C31.4295 32.1807 30.8295 32.5807 30.4295 33.1807C30.0295 33.7807 29.7295 34.4807 29.7295 35.2807V36.3807L29.8295 36.5807H29.7295V50.7807C30.2295 51.0807 30.6295 51.2807 31.1295 51.4807C31.2295 51.4807 31.2295 51.4807 31.3295 51.5807C31.6295 51.6807 32.0295 51.8807 32.3295 51.9807C32.3295 51.9807 32.4295 51.9807 32.5295 52.0807V35.2807C32.5295 34.8807 32.8295 34.5807 33.2295 34.5807H51.0295C51.2295 34.5807 51.4295 34.6807 51.5295 34.7807C51.6295 34.1807 51.8295 33.5807 51.9295 32.9807C51.9295 32.7807 52.0295 32.5807 52.0295 32.3807C52.0295 32.1807 52.0295 32.0807 52.0295 31.9807ZM52.0295 31.9807C51.9295 31.9807 51.7295 31.8807 51.6295 31.8807C51.4295 31.8807 51.2295 31.8807 51.0295 31.8807H37.1295V30.6807C37.1295 30.2807 37.4295 29.9807 37.8295 29.9807H42.0295C42.0295 29.8807 41.9295 29.6807 41.9295 29.5807C41.3295 27.5807 40.6295 25.6807 39.8295 23.7807C39.3295 24.3807 39.0295 25.1807 39.0295 25.9807V27.1807H37.8295C35.9295 27.1807 34.3295 28.6807 34.3295 30.6807V31.8807H33.1295C32.7295 31.8807 32.4295 31.9807 32.0295 32.0807C31.4295 32.1807 30.8295 32.5807 30.4295 33.1807C30.0295 33.7807 29.7295 34.4807 29.7295 35.2807V36.3807L29.8295 36.5807H29.7295V50.7807C30.2295 51.0807 30.6295 51.2807 31.1295 51.4807C31.2295 51.4807 31.2295 51.4807 31.3295 51.5807C31.6295 51.6807 32.0295 51.8807 32.3295 51.9807C32.3295 51.9807 32.4295 51.9807 32.5295 52.0807V35.2807C32.5295 34.8807 32.8295 34.5807 33.2295 34.5807H51.0295C51.2295 34.5807 51.4295 34.6807 51.5295 34.7807C51.6295 34.1807 51.8295 33.5807 51.9295 32.9807C51.9295 32.7807 52.0295 32.5807 52.0295 32.3807C52.0295 32.1807 52.0295 32.0807 52.0295 31.9807ZM52.0295 31.9807C51.9295 31.9807 51.7295 31.8807 51.6295 31.8807C51.4295 31.8807 51.2295 31.8807 51.0295 31.8807H37.1295V30.6807C37.1295 30.2807 37.4295 29.9807 37.8295 29.9807H42.0295C42.0295 29.8807 41.9295 29.6807 41.9295 29.5807C41.3295 27.5807 40.6295 25.6807 39.8295 23.7807C39.3295 24.3807 39.0295 25.1807 39.0295 25.9807V27.1807H37.8295C35.9295 27.1807 34.3295 28.6807 34.3295 30.6807V31.8807H33.1295C32.7295 31.8807 32.4295 31.9807 32.0295 32.0807C31.4295 32.1807 30.8295 32.5807 30.4295 33.1807C30.0295 33.7807 29.7295 34.4807 29.7295 35.2807V36.3807L29.8295 36.5807H29.7295V50.7807C30.2295 51.0807 30.6295 51.2807 31.1295 51.4807C31.2295 51.4807 31.2295 51.4807 31.3295 51.5807C31.6295 51.6807 32.0295 51.8807 32.3295 51.9807C32.3295 51.9807 32.4295 51.9807 32.5295 52.0807V35.2807C32.5295 34.8807 32.8295 34.5807 33.2295 34.5807H51.0295C51.2295 34.5807 51.4295 34.6807 51.5295 34.7807C51.6295 34.1807 51.8295 33.5807 51.9295 32.9807C51.9295 32.7807 52.0295 32.5807 52.0295 32.3807C52.0295 32.1807 52.0295 32.0807 52.0295 31.9807ZM52.0295 31.9807C51.9295 31.9807 51.7295 31.8807 51.6295 31.8807C51.4295 31.8807 51.2295 31.8807 51.0295 31.8807H37.1295V30.6807C37.1295 30.2807 37.4295 29.9807 37.8295 29.9807H42.0295C42.0295 29.8807 41.9295 29.6807 41.9295 29.5807C41.3295 27.5807 40.6295 25.6807 39.8295 23.7807C39.3295 24.3807 39.0295 25.1807 39.0295 25.9807V27.1807H37.8295C35.9295 27.1807 34.3295 28.6807 34.3295 30.6807V31.8807H33.1295C32.7295 31.8807 32.4295 31.9807 32.0295 32.0807C31.4295 32.1807 30.8295 32.5807 30.4295 33.1807C30.0295 33.7807 29.7295 34.4807 29.7295 35.2807V36.3807L29.8295 36.5807H29.7295V50.7807C30.2295 51.0807 30.6295 51.2807 31.1295 51.4807C31.2295 51.4807 31.2295 51.4807 31.3295 51.5807C31.6295 51.6807 32.0295 51.8807 32.3295 51.9807C32.3295 51.9807 32.4295 51.9807 32.5295 52.0807V35.2807C32.5295 34.8807 32.8295 34.5807 33.2295 34.5807H51.0295C51.2295 34.5807 51.4295 34.6807 51.5295 34.7807C51.6295 34.1807 51.8295 33.5807 51.9295 32.9807C51.9295 32.7807 52.0295 32.5807 52.0295 32.3807C52.0295 32.1807 52.0295 32.0807 52.0295 31.9807ZM32.3295 35.5807C32.1295 35.6807 31.8295 35.7807 31.6295 35.8807C31.4295 35.9807 31.1295 36.0807 30.9295 36.1807C30.5295 36.2807 30.2295 36.4807 29.8295 36.5807L31.5295 40.1807L32.5295 42.3807V35.4807C32.4295 35.5807 32.3295 35.5807 32.3295 35.5807ZM29.7295 48.4807V50.8807C30.2295 51.1807 30.6295 51.3807 31.1295 51.5807C31.2295 51.5807 31.2295 51.5807 31.3295 51.6807C31.6295 51.7807 32.0295 51.9807 32.3295 52.0807C32.3295 52.0807 32.4295 52.0807 32.5295 52.1807V47.7807C31.5295 48.0807 30.6295 48.2807 29.7295 48.4807ZM52.0295 31.9807C51.9295 31.9807 51.7295 31.8807 51.6295 31.8807C51.4295 31.8807 51.2295 31.8807 51.0295 31.8807H39.0295C38.3295 32.3807 37.6295 32.8807 36.8295 33.3807C36.0295 33.8807 35.3295 34.2807 34.5295 34.6807H50.9295C51.1295 34.6807 51.3295 34.7807 51.4295 34.8807C51.5295 34.2807 51.7295 33.6807 51.8295 33.0807C51.8295 32.8807 51.9295 32.6807 51.9295 32.4807C52.0295 32.1807 52.0295 32.0807 52.0295 31.9807ZM29.7295 48.4807V50.8807C30.2295 51.1807 30.6295 51.3807 31.1295 51.5807C31.2295 51.5807 31.2295 51.5807 31.3295 51.6807C31.6295 51.7807 32.0295 51.9807 32.3295 52.0807C32.3295 52.0807 32.4295 52.0807 32.5295 52.1807V47.7807C31.5295 48.0807 30.6295 48.2807 29.7295 48.4807Z" fill="black"/>
<path d="M45.9295 40.3807C45.9295 41.1807 45.3295 41.7807 44.5295 41.7807H37.3295C36.9295 41.7807 36.5295 41.5807 36.3295 41.2807C36.1295 41.0807 36.0295 40.8807 36.0295 40.5807C36.0295 40.4807 36.0295 40.4807 36.0295 40.3807C36.0295 39.5807 36.6295 38.9807 37.4295 38.9807H44.6295C45.2295 38.9807 45.6295 39.2807 45.9295 39.7807C45.9295 39.9807 45.9295 40.1807 45.9295 40.3807Z" fill="black"/>
<path d="M48.1294 45.8807C48.1294 46.5807 47.6294 47.1807 46.8294 47.2807C46.8294 47.2807 46.8294 47.2807 46.7294 47.2807H37.3294C37.1294 47.2807 36.9294 47.2807 36.7294 47.1807C36.4294 46.9807 36.1294 46.7807 36.0294 46.3807C35.9294 46.1807 35.9294 46.0807 35.9294 45.8807C35.9294 45.7807 35.9294 45.5807 36.0294 45.4807C36.2294 44.8807 36.7294 44.4807 37.3294 44.4807H46.8294C46.9294 44.4807 47.1294 44.4807 47.2294 44.5807C47.7294 44.7807 48.1294 45.2807 48.1294 45.8807Z" fill="black"/>
<path d="M48.1295 51.3807C48.1295 52.1807 47.5295 52.7807 46.7295 52.7807H37.3295C37.2295 52.7807 37.2295 52.7807 37.1295 52.7807C36.6295 52.6807 36.2295 52.3807 36.1295 51.9807C36.0295 51.7807 36.0295 51.5807 36.0295 51.3807C36.0295 51.1807 36.0295 50.9807 36.1295 50.7807C36.1295 50.7807 36.1295 50.6807 36.2295 50.5807C36.4295 50.1807 36.9295 49.9807 37.4295 49.9807H46.8295H46.9295C47.6295 50.0807 48.1295 50.6807 48.1295 51.3807Z" fill="black"/>
<path d="M48.1294 56.8807C48.1294 57.6807 47.5294 58.2807 46.7294 58.2807H37.3294C36.5294 58.2807 35.9294 57.6807 35.9294 56.8807C35.9294 56.5807 36.0294 56.3807 36.1294 56.0807C36.3294 55.6807 36.8294 55.4807 37.3294 55.4807H46.8294C47.5294 55.5807 48.1294 56.1807 48.1294 56.8807Z" fill="black"/>
</svg>
