<svg width="0" height="0" class="hidden">
  <symbol xmlns="http://www.w3.org/2000/svg" viewBox="0 0 20 20" id="external-link" fill="#FFFFFF">
    <title>external link</title>
    <path d="M17 17H3V3h5V1H3a2 2 0 0 0-2 2v14a2 2 0 0 0 2 2h14a2 2 0 0 0 2-2v-5h-2z"></path>
    <path d="M19 1h-8l3.29 3.29-5.73 5.73 1.42 1.42 5.73-5.73L19 9V1z"></path>
  </symbol>
  <symbol xmlns="http://www.w3.org/2000/svg" viewBox="0 0 24 24" id="back" fill="#FFFFFF">
    <path d="M10 9V5l-7 7 7 7v-4.1c5 0 8.5 1.6 11 5.1-1-5-4-10-11-11z"></path>
    <path d="M0 0h24v24H0z" fill="none"></path>
  </symbol>
</svg>